<svg id="e89794dd-e393-4507-a99f-4f6624484a4e" data-name="Layer 1" xmlns="http://www.w3.org/2000/svg" viewBox="0 0 324.24 70.3"><polygon points="45.83 0 0 0 0 1.74 0 7.15 0 22.58 8 22.58 8 7.15 45.83 7.15 45.83 0"/><polygon points="39.66 31.61 0 31.61 0 33.34 0 38.76 0 70.3 8 70.3 8 38.76 39.66 38.76 39.66 31.61"/><rect x="120.06" width="56.9" height="7.14"/><rect x="124.4" y="41.74" width="53.13" height="8.12" transform="translate(102.58 194.7) rotate(-90)"/><path d="M86.75,9.8c11.89,0,21.77,9.72,23.8,22.53H119c-2.2-17.1-15.79-30.26-32.24-30.26s-30,13.16-32.24,30.26H63C65,19.52,74.86,9.8,86.75,9.8Z" transform="translate(-2.58 -2.07)"/><path d="M86.75,64.64C74.86,64.64,65,54.92,63,42.11H54.51C56.71,59.2,70.3,72.37,86.75,72.37s30-13.17,32.24-30.26h-8.44C108.52,54.92,98.64,64.64,86.75,64.64Z" transform="translate(-2.58 -2.07)"/><rect x="287.61" y="33.16" width="70.3" height="8.12" transform="translate(282.96 357.91) rotate(-90)"/><path d="M216,9.8c11.88,0,21.76,9.72,23.8,22.53h8.44C246.05,15.23,232.46,2.07,216,2.07s-30,13.16-32.25,30.26h8.44C194.25,19.52,204.13,9.8,216,9.8Z" transform="translate(-2.58 -2.07)"/><path d="M216,64.64c-11.89,0-21.77-9.72-23.81-22.53h-8.44C186,59.2,199.57,72.37,216,72.37s30-13.17,32.24-30.26h-8.44C237.78,54.92,227.9,64.64,216,64.64Z" transform="translate(-2.58 -2.07)"/><polygon points="303.38 0.02 257.57 0.02 257.57 1.75 257.57 7.16 257.57 22.58 265.57 22.58 265.57 7.16 303.38 7.16 303.38 0.02"/><polygon points="297.21 31.61 257.57 31.61 257.57 33.34 257.57 38.75 257.57 70.28 265.57 70.28 265.57 38.75 297.21 38.75 297.21 31.61"/></svg>